<?xml version="1.0" encoding="UTF-8"?> <svg xmlns="http://www.w3.org/2000/svg" xmlns:xlink="http://www.w3.org/1999/xlink" viewBox="0 0 984.23 315.38" width="984.23" height="315.38"><defs><style>.cls-1{fill:#24272a;}.cls-2{fill:url(#linear-gradient);}.cls-3{fill:url(#linear-gradient-2);}</style><linearGradient id="linear-gradient" x1="422.2" y1="38.71" x2="-8.06" y2="38.71" gradientUnits="userSpaceOnUse"><stop offset="0" stop-color="#ff004a"></stop><stop offset="1" stop-color="#622489"></stop></linearGradient><linearGradient id="linear-gradient-2" x1="422.2" y1="157.69" x2="-8.06" y2="157.69" xlink:href="#linear-gradient"></linearGradient></defs><g id="Layer_2" data-name="Layer 2"><g id="Layer_1-2" data-name="Layer 1"><path class="cls-1" d="M529.14,55.35H517.6V29.61L504.05,55.35h-5.47L485,29.47V55.35H473.42V7.05H485.1l16.21,30.64L517.53,7.05h11.61Z"></path><path class="cls-1" d="M594.51,31.27c0,14.06-11.32,25.16-25.73,25.16S543,45.33,543,31.27,554.36,6,568.78,6,594.51,17.14,594.51,31.27Zm-11.89,0c0-8.29-6-14.41-13.84-14.41S554.94,23,554.94,31.27s6,14.27,13.84,14.27S582.62,39.49,582.62,31.27Z"></path><path class="cls-1" d="M640.13,30.69c4.47.37,9.3,3.83,9.3,11.11,0,8-5.4,13.55-15.93,13.55H608.42V7.05h25c8.87,0,14.63,5.26,14.63,13.19,0,6.63-4.68,9.81-7.93,10.17ZM620.31,27h10.38c3.53,0,5.84-2.16,5.84-5.41,0-3-2.38-5-5.41-5H620.31Zm11.1,18.74c3.82,0,5.91-2.09,5.91-5.41s-2.3-5.19-5.69-5.19H620.31v10.6Z"></path><path class="cls-1" d="M663.34,55.35V7.05h11.89v48.3Z"></path><path class="cls-1" d="M726.48,55.35H690.8V7.05h11.89V45h23.79Z"></path><path class="cls-1" d="M776,55.35l-3.39-8.8H752.28l-3.38,8.8H736.14l20.18-48.3H768.5l20.18,48.3ZM762.45,20.46l-6.13,15.86h12.33Z"></path><path class="cls-1" d="M830,55.35,815.42,38.77H812V55.35H800.07V7.05H824.5c10.46,0,17.38,6.35,17.38,15.79,0,7.93-4.91,13.62-12.69,15.35l15.14,17.16Zm-6.77-26.53c4.25,0,7-2.31,7-5.84s-2.74-5.76-7-5.76H812v11.6Z"></path><path class="cls-1" d="M856.22,55.35V7.05h11.89v48.3Z"></path><path class="cls-1" d="M922.6,20l-11.68,2.38a8.23,8.23,0,0,0-8.43-6.77c-4,0-6.49,2.16-6.49,4.9,0,1.95.87,3.39,3.9,4l10,2.23c8.36,1.87,13.26,6.42,13.26,14.06,0,10.3-9.16,15.64-19.9,15.64s-19.82-5.19-21.12-14.63l12.26-2.38c1.22,5,4.68,7.13,9.51,7.13,4.47,0,7.14-2,7.14-5,0-2.16-1-3.53-4.47-4.25l-10.09-2.17c-6.92-1.58-13-5.19-13-14,0-9.37,7.79-15.21,19.1-15.21C913.16,6,920.8,11.16,922.6,20Z"></path><path class="cls-1" d="M473.42,141.84V93.54h11.89v48.3Z"></path><path class="cls-1" d="M547,141.84h-9.8l-24.44-28v28H500.88V93.54h9.87l24.44,28.84V93.54H547Z"></path><path class="cls-1" d="M608.78,141.84H599l-24.44-28v28H562.65V93.54h9.87L597,122.38V93.54h11.82Z"></path><path class="cls-1" d="M674.23,117.76c0,14.06-11.32,25.16-25.74,25.16s-25.73-11.1-25.73-25.16,11.32-25.3,25.73-25.3S674.23,103.64,674.23,117.76Zm-11.9,0c0-8.29-6-14.41-13.84-14.41s-13.84,6.12-13.84,14.41,6,14.28,13.84,14.28S662.33,126,662.33,117.76Z"></path><path class="cls-1" d="M713.29,141.84H701.83l-20.54-48.3h13.12l13.11,32,13.2-32h13.12Z"></path><path class="cls-1" d="M774.7,141.84l-3.39-8.79H751l-3.39,8.79H734.84L755,93.54h12.19l20.18,48.3ZM761.15,107,755,122.81h12.33Z"></path><path class="cls-1" d="M818.45,103.92v37.92H806.63V103.92H791V93.54h43.1v10.38Z"></path><path class="cls-1" d="M846.92,141.84V93.54h11.89v48.3Z"></path><path class="cls-1" d="M924.19,117.76c0,14.06-11.32,25.16-25.73,25.16s-25.74-11.1-25.74-25.16,11.32-25.3,25.74-25.3S924.19,103.64,924.19,117.76Zm-11.89,0c0-8.29-6-14.41-13.84-14.41s-13.84,6.12-13.84,14.41,6,14.28,13.84,14.28S912.3,126,912.3,117.76Z"></path><path class="cls-1" d="M984.23,141.84h-9.8l-24.44-28v28H938.1V93.54H948l24.44,28.84V93.54h11.82Z"></path><path class="cls-1" d="M521.79,210.24c-2.24,12.11-12,19.17-24.37,19.17-14.34,0-25.66-11-25.66-25.22S483.08,179,497.42,179c11.9,0,22,7.06,24.29,18.52L510,200.22c-1.52-7-6.42-10.38-12.62-10.38-7.64,0-13.77,6.13-13.77,14.35s6.13,14.41,13.77,14.41c6.13,0,11-3.46,12.69-10.67Z"></path><path class="cls-1" d="M573.32,228.33H535.69V180H573.1v10.23H547.59v9.09H571V209H547.59v9.08h25.73Z"></path><path class="cls-1" d="M634.08,228.33h-9.8l-24.44-28v28H588V180h9.87l24.44,28.83V180h11.82Z"></path><path class="cls-1" d="M674.44,190.42v37.91H662.62V190.42H647V180h43.1v10.38Z"></path><path class="cls-1" d="M740.54,228.33H702.91V180h37.41v10.23H714.8v9.09h23.43V209H714.8v9.08h25.74Z"></path><path class="cls-1" d="M785.08,228.33l-14.56-16.58h-3.46v16.58H755.17V180H779.6c10.45,0,17.37,6.34,17.37,15.78,0,7.93-4.9,13.63-12.68,15.36l15.13,17.15Zm-6.78-26.52c4.26,0,7-2.31,7-5.84s-2.74-5.77-7-5.77H767.06v11.61Z"></path><polygon class="cls-2" points="52.34 65.37 52.34 17.95 268.41 12.06 52.34 65.37"></polygon><polygon class="cls-3" points="416.16 0 416.16 233.01 379.66 245.87 379.66 315.38 320.75 266.63 0 206.12 0 84.65 320.75 7.51 416.16 0"></polygon></g></g></svg> 