<?xml version="1.0" encoding="UTF-8"?> <svg xmlns="http://www.w3.org/2000/svg" xmlns:xlink="http://www.w3.org/1999/xlink" version="1.1" id="Lager_1" x="0px" y="0px" viewBox="0 0 1908 470" style="enable-background:new 0 0 1908 470;" xml:space="preserve" width="1908" height="470"> <style type="text/css"> .st0{fill:#FFFFFF;} .st1{fill-rule:evenodd;clip-rule:evenodd;fill:#FFFFFF;} </style> <g> <g> <g> <g> <g> <g> <path class="st0" d="M468.1,468.9H0.1V0.9h468V468.9z M26.2,442.7h415.8V27H26.2V442.7z"></path> </g> </g> <g> <rect x="110.7" y="144.2" class="st1" width="34.1" height="34.1"></rect> <rect x="110.7" y="197.4" class="st1" width="34.1" height="34.1"></rect> <rect x="216.9" y="197.3" class="st1" width="34.1" height="34.1"></rect> <rect x="216.9" y="250.5" class="st1" width="34.1" height="34.1"></rect> <rect x="110.7" y="250.7" class="st1" width="34.1" height="34.1"></rect> <rect x="110.7" y="303.9" class="st1" width="34.1" height="34.1"></rect> <rect x="323.4" y="197.3" class="st1" width="34.1" height="34.1"></rect> <rect x="323.4" y="144.2" class="st1" width="34.1" height="34.1"></rect> <rect x="270.2" y="144.2" class="st1" width="34.1" height="34.1"></rect> <rect x="216.9" y="144.2" class="st1" width="34.1" height="34.1"></rect> <rect x="163.8" y="144.2" class="st1" width="34.1" height="34.1"></rect> </g> </g> </g> </g> <g> <g> <path class="st0" d="M827.5,228.2h-23.3v-99l-53,99h-11.4l-53.2-99v99h-23.3V78.4h21l61,113.4l61.3-113.4h20.8L827.5,228.2 L827.5,228.2z"></path> <path class="st0" d="M1015.3,153.5c0,43.4-34.4,77.8-78.3,77.8c-43.8,0-78-34.4-78-77.8c0-43.6,34.2-78.3,78-78.3 C980.9,75.3,1015.3,109.9,1015.3,153.5z M991.2,153.5c0-31.7-23.7-55.7-54.1-55.7c-30.2,0-53.9,23.9-53.9,55.7 c0,31.5,23.7,55.2,53.9,55.2C967.5,208.8,991.2,185.1,991.2,153.5z"></path> <path class="st0" d="M1169.4,186.6c0,24.8-21.5,41.6-55.2,41.6h-68.4v-152h66c31.5,0,50.3,15,50.3,39.1 c0,15.9-8.7,29.3-23.3,34.2C1159.5,153.5,1169.4,168.5,1169.4,186.6z M1069.9,97.4v44.7h38c20.3,0,31.5-9.6,31.5-23.7 c0-13.2-11-21-30.4-21H1069.9z M1145.7,183.7c0-13.6-12.1-21.7-31.5-21.7h-44.3V207h43.4C1134.3,207,1145.7,196.7,1145.7,183.7z"></path> <path class="st0" d="M1201.7,228.2V78.4h23.9v149.8H1201.7z"></path> <path class="st0" d="M1367.2,228.2h-105.8V78.4h23.9v128.1h81.8V228.2z"></path> <path class="st0" d="M1516.1,228.2l-14.8-34.9h-72.9l-14.8,34.9h-25.9l66-149.8h22.4l66,149.8H1516.1z M1464.9,107.7l-27.1,63.7 h54.1L1464.9,107.7z"></path> <path class="st0" d="M1631.7,176.8h-35.1v51.4h-24.1v-152h61c34,0,58.6,19.7,58.6,50.3c0,22.6-13.4,39.3-34,46.5l42.5,55.2H1671 L1631.7,176.8z M1596.6,154.7h36c20.3,0,35.8-10.7,35.8-28.2s-15.4-28.2-35.8-28.2h-36V154.7z"></path> <path class="st0" d="M1730.3,228.2V78.4h23.9v149.8H1730.3z"></path> <path class="st0" d="M1905.5,117.5l-23.9,4.9c-2.7-15.9-16.3-26.4-34.2-26.4c-17.7,0-29.3,9.6-29.3,22.8c0,10.5,6,16.1,19,18.8 l32.4,6.9c22.4,4.9,38.5,17.4,38.5,40.9c0,28.2-23,45.8-57.5,45.8c-31.7,0-58.1-15.4-61.9-44.5l25.5-5.4 c3.6,19.2,18.6,28.6,38.7,28.6s31.5-9.6,31.5-23.3c0-11.4-6-16.8-21-19.9l-32.6-6.7c-18.6-4.2-37.8-14.1-37.8-40.7 c0-26.4,21.7-44.3,55-44.3C1878.2,75.3,1900.1,91.8,1905.5,117.5z"></path> </g> </g> <g> <path class="st0" d="M663.4,388.2v-74.1h15.1v74.1H663.4z"></path> <path class="st0" d="M749.1,354.5v33.6h-14.6v-30.5c0-7.7-4.4-12.9-11.2-12.9c-8.3,0-13.7,5.5-13.7,19v24.4H695V333h14.6v5 c4.3-4.3,10.1-6.6,17.4-6.6C740.3,331.3,749.1,340.8,749.1,354.5z"></path> <path class="st0" d="M819.8,388.2h-14.6v-4.3c-4.6,3.8-10.7,6-18.3,6c-14,0-27.1-11.8-27.1-29.2c0-17.4,13-29.3,27.1-29.3 c7.5,0,13.6,2.2,18.3,6.1v-28.9h14.6V388.2z M805.2,360.6c0-10.2-7.8-16.6-15.7-16.6c-8.9,0-15.5,6.4-15.5,16.6 c0,10.2,6.6,16.5,15.5,16.5C797.3,377.1,805.2,370.8,805.2,360.6z"></path> <path class="st0" d="M889,388.2h-14.6v-5c-4.3,4.3-10.1,6.6-17.4,6.6c-13.3,0-22.1-9.5-22.1-23.2V333h14.6v30.5 c0,7.7,4.4,12.9,11.2,12.9c8.3,0,13.7-5.5,13.7-19V333H889L889,388.2L889,388.2z"></path> <path class="st0" d="M915.1,370.6c0.8,5.6,5.6,7.5,11.4,7.5c5.4,0,8.6-2.4,8.6-5.5c0-2-1.3-4-6.1-5l-11.3-2.3 c-10-2.1-15.6-7.7-15.6-15.7c0-10.6,8.6-18.3,22.6-18.3c13,0,22.1,6.7,24,16.4l-13.9,2.8c-0.6-4.4-4.4-7.6-10.5-7.6 c-5.9,0-7.5,2.9-7.5,5.4c0,1.8,0.7,3.7,5,4.6l13.2,2.9c9.7,2.1,14.5,8.2,14.5,15.6c0,12.2-9.8,18.5-24.2,18.5 c-12.2,0-23.3-4.8-24.8-16.2L915.1,370.6z"></path> <path class="st0" d="M1001.9,385.7c-5.7,3.1-9.7,4.1-14.4,4.1c-13,0-21.7-6.9-21.7-22v-22.9H954V333h11.8v-16.7h14.6V333h18v11.9 h-18v21.8c0,6.6,3.2,9.5,8.1,9.5c2.5,0,6.3-1.1,9.2-2.7L1001.9,385.7z"></path> <path class="st0" d="M1049.1,332.6l-0.8,14h-3.2c-13.5,0-19.7,8.3-19.7,23.7v17.8h-14.6V333h14.6V343c4.4-6.4,10.8-10.8,19.8-10.8 C1046.7,332.2,1047.8,332.2,1049.1,332.6z"></path> <path class="st0" d="M1076.3,316.5c0,4.9-3.8,8.5-8.9,8.5c-5.2,0-8.9-3.7-8.9-8.5c0-4.6,3.7-8.7,8.9-8.7 C1072.5,307.8,1076.3,311.9,1076.3,316.5z M1060.2,388.2V333h14.6v55.2H1060.2z"></path> <path class="st0" d="M1147.6,388.2H1133v-4.3c-4.6,3.8-10.7,6-18.3,6c-14,0-27.1-11.8-27.1-29.2c0-17.4,13-29.3,27.1-29.3 c7.5,0,13.6,2.2,18.3,6.1V333h14.6V388.2z M1133,360.6c0-10.2-7.8-16.6-15.7-16.6c-8.9,0-15.5,6.4-15.5,16.6 c0,10.2,6.6,16.5,15.5,16.5C1125.2,377.1,1133,370.8,1133,360.6z"></path> <path class="st0" d="M1164.2,388.2v-79.6h14.6v79.6H1164.2z"></path> <path class="st0" d="M1279.9,333.7l-15.1,3.1c-1.1-7-7.2-11.5-14.6-11.5c-7.5,0-12.1,4.2-12.1,9.2c0,3.8,1.7,6.4,7.4,7.5l15.9,3.2 c12.1,2.5,19.5,9.7,19.5,21.2c0,14.4-11.8,23.3-29.4,23.3c-15.5,0-29.1-7.2-31-22l15.8-3.2c2,8.4,8.2,12.1,16.6,12.1 c8.6,0,13.2-4.1,13.2-9.4c0-4.2-2-6.7-8.6-8.1l-15.7-3c-8.9-1.9-19.5-6.8-19.5-21.2c0-13.3,10.8-22.6,28.2-22.6 C1265.6,312.4,1277,320.6,1279.9,333.7z"></path> <path class="st0" d="M1350.8,360.6c0,17.4-13.6,29-29.7,29c-16.5,0-30.1-11.6-30.1-29c0-17.4,13.6-29,30.1-29 C1337.2,331.6,1350.8,343.2,1350.8,360.6z M1336.6,360.6c0-10.3-8-16.5-15.6-16.5c-8,0-15.9,6.2-15.9,16.5 c0,10.3,8,16.5,15.9,16.5C1328.6,377.1,1336.6,370.9,1336.6,360.6z"></path> <path class="st0" d="M1362.9,388.2v-79.6h14.6v79.6H1362.9z"></path> <path class="st0" d="M1446.8,388.2h-14.6v-5c-4.3,4.3-10.1,6.6-17.4,6.6c-13.3,0-22.1-9.5-22.1-23.2V333h14.6v30.5 c0,7.7,4.4,12.9,11.2,12.9c8.3,0,13.7-5.5,13.7-19V333h14.6V388.2z"></path> <path class="st0" d="M1503.5,385.7c-5.7,3.1-9.7,4.1-14.4,4.1c-13,0-21.7-6.9-21.7-22v-22.9h-11.8V333h11.8v-16.7h14.6V333h18 v11.9h-18v21.8c0,6.6,3.2,9.5,8.1,9.5c2.5,0,6.3-1.1,9.2-2.7L1503.5,385.7z"></path> <path class="st0" d="M1529.3,316.5c0,4.9-3.8,8.5-8.9,8.5c-5.2,0-8.9-3.7-8.9-8.5c0-4.6,3.7-8.7,8.9-8.7 C1525.6,307.8,1529.3,311.9,1529.3,316.5z M1513.2,388.2V333h14.6v55.2H1513.2z"></path> <path class="st0" d="M1600.6,360.6c0,17.4-13.6,29-29.7,29c-16.5,0-30.1-11.6-30.1-29c0-17.4,13.6-29,30.1-29 C1587,331.6,1600.6,343.2,1600.6,360.6z M1586.4,360.6c0-10.3-8-16.5-15.6-16.5c-8,0-15.9,6.2-15.9,16.5c0,10.3,8,16.5,15.9,16.5 C1578.5,377.1,1586.4,370.9,1586.4,360.6z"></path> <path class="st0" d="M1666.8,354.5v33.6h-14.6v-30.5c0-7.7-4.4-12.9-11.2-12.9c-8.3,0-13.7,5.5-13.7,19v24.4h-14.6V333h14.6v5 c4.3-4.3,10.1-6.6,17.4-6.6C1658,331.3,1666.8,340.8,1666.8,354.5z"></path> <path class="st0" d="M1692,370.6c0.8,5.6,5.6,7.5,11.4,7.5c5.4,0,8.6-2.4,8.6-5.5c0-2-1.3-4-6.1-5l-11.3-2.3 c-10-2.1-15.6-7.7-15.6-15.7c0-10.6,8.6-18.3,22.6-18.3c13,0,22.1,6.7,24,16.4l-13.9,2.8c-0.6-4.4-4.4-7.6-10.5-7.6 c-5.9,0-7.5,2.9-7.5,5.4c0,1.8,0.7,3.7,5,4.6l13.2,2.9c9.7,2.1,14.5,8.2,14.5,15.6c0,12.2-9.8,18.5-24.2,18.5 c-12.2,0-23.3-4.8-24.8-16.2L1692,370.6z"></path> </g> </g> </svg> 